<svg xmlns="http://www.w3.org/2000/svg" xmlns:xlink="http://www.w3.org/1999/xlink" version="1.1" id="Layer_1" x="0px" y="0px" viewBox="0 0 926.59 926.59" style="enable-background:new 0 0 926.59 926.59;" xml:space="preserve">
<style type="text/css">
	.st0{opacity:0.03;fill:#3C332F;}
	.st1{fill:#7C6D6A;}
	.st2{opacity:0.5;}
	.st3{fill:#232222;}
	.st4{fill:#C4B1AB;}
	.st5{fill:#FCFCFC;}
	.st6{opacity:0.15;}
	.st7{fill:#FFFFFF;}
	.st8{opacity:0.8;}
	.st9{fill:#F1F2F2;}
	.st10{opacity:0.53;fill:#564947;}
	.st11{fill:#564947;}
	.st12{fill:#F8F8F8;}
</style>






<g>
	<g>
		<rect x="190.68" y="476.61" class="st7" width="546.02" height="327.61"/>
		<g class="st8">
			<defs>
				
					<rect id="SVGID_00000016067941326190458460000004798908459138054331_" x="190.68" y="476.61" class="st8" width="546.02" height="327.61"/>
			</defs>
			<clipPath id="SVGID_00000096031328476052000800000003026002053835147659_">
				<use xlink:href="#SVGID_00000016067941326190458460000004798908459138054331_" style="overflow:visible;"/>
			</clipPath>
		</g>
		<path class="st4" d="M190.68,679.04c22.27,25.28,58.39,47.67,87.86,31.89c65.76-35.22,65.89-152.5,145.39-114.74    c79.49,37.76,106.83,45.86,53.09-51.54c-16.04-29.08-36.34-55.34-50.11-67.81H190.68V679.04z"/>
		<path class="st9" d="M190.68,679.04c21.03,25.28,47.76,43.83,75.58,28.05c62.09-35.22,69.6-148.66,144.66-110.91    c75.06,37.76,111.03,49.13,60.29-48.27c-15.14-29.08-29.18-52.79-44.29-71.09H190.68V679.04z"/>
		<path class="st10" d="M260.12,662.21c0,0,1.28,0.9,3.7,2.57c2.41,1.67,6.08,3.93,10.96,6.38c4.91,2.3,11.25,4.73,18.82,4.92    c3.75,0.09,7.8-0.33,11.79-1.71c4-1.34,7.97-3.44,11.73-6.17c7.55-5.48,14.27-13.24,20.83-21.76c6.6-8.52,13.02-17.97,20.75-26.96    c0.96-1.13,1.94-2.24,2.97-3.33c0.52-0.55,1-1.1,1.54-1.66l1.59-1.58c2.23-2.12,4.63-4.01,7.22-5.69    c5.17-3.37,11.03-5.72,17.12-7.1c6.09-1.4,12.39-1.88,18.66-1.82c6.28,0.06,12.55,0.66,18.76,1.47    c6.21,0.83,12.38,1.89,18.52,2.82c6.13,0.9,12.27,1.77,18.29,1.6c3-0.09,5.99-0.5,8.66-1.59c2.67-1.06,4.92-2.97,6.22-5.51    c0.29-0.58,0.69-1.36,0.91-1.99l0.38-0.99l0.31-1.04c0.4-1.39,0.69-2.82,0.83-4.27c0.32-2.89,0.22-5.83-0.17-8.7    c-0.75-5.76-2.48-11.3-4.48-16.56c-2.02-5.27-4.4-10.28-6.91-15.05c-5.03-9.54-10.54-18.14-15.9-25.89    c-5.37-7.74-10.57-14.64-15.31-20.64c-4.74-6.01-9.04-11.11-12.65-15.26c-7.21-8.29-11.65-12.74-11.65-12.74s1.11,1.11,3.2,3.19    c2.06,2.1,5.06,5.2,8.75,9.29c3.69,4.08,8.08,9.11,12.94,15.04c4.86,5.93,10.2,12.74,15.66,20.46    c5.46,7.71,11.09,16.29,16.27,25.84c2.58,4.78,5.04,9.81,7.15,15.14c2.11,5.32,3.86,10.98,4.67,16.95c0.4,2.98,0.53,6.06,0.2,9.14    c-0.15,1.54-0.44,3.08-0.87,4.59l-0.34,1.13l-0.43,1.13c-0.3,0.79-0.6,1.36-0.98,2.14c-1.47,2.9-4.15,5.19-7.14,6.38    c-2.99,1.22-6.17,1.65-9.3,1.76c-6.28,0.2-12.48-0.67-18.65-1.55c-6.17-0.91-12.32-1.94-18.49-2.75    c-6.17-0.83-12.35-1.44-18.52-1.53c-6.16-0.08-12.31,0.37-18.22,1.7c-5.91,1.32-11.56,3.56-16.54,6.79    c-2.49,1.6-4.84,3.44-6.95,5.43l-1.59,1.57c-0.49,0.5-1,1.07-1.5,1.6c-1.02,1.06-1.98,2.16-2.94,3.27    c-7.64,8.88-14.2,18.23-20.92,26.71c-6.7,8.48-13.57,16.27-21.34,21.77c-3.87,2.74-7.96,4.87-12.09,6.17    c-4.13,1.34-8.29,1.69-12.11,1.53c-7.72-0.33-14.07-2.92-18.97-5.32c-2.4-1.33-4.6-2.42-6.36-3.64c-1.78-1.16-3.33-2.11-4.49-3.01    C261.38,663.14,260.12,662.21,260.12,662.21z"/>
		<g>
			<g>
				<g>
					<rect x="625.99" y="504.36" class="st7" width="76.39" height="76.39"/>
				</g>
			</g>
			<g>
				<g>
					<g>
						<g>
							<g>
								<path class="st11" d="M695,573.39l-21.32-0.01v-21.34l21.32-0.01V573.39L695,573.39z M690.25,556.8h-11.83v11.83h11.83          V556.8L690.25,556.8z"/>
							</g>
						</g>
					</g>
					<g>
						<g>
							<g>
								<path class="st11" d="M695,533.05l-21.32,0.02v-21.34H695V533.05L695,533.05z M678.42,528.31h11.83v-11.83h-11.83V528.31          L678.42,528.31z"/>
							</g>
						</g>
					</g>
					<g>
						<g>
							<g>
								<polygon class="st11" points="695,542.56 690.28,542.57 690.28,542.58 690.27,537.83 695,537.83 695,542.56         "/>
							</g>
						</g>
					</g>
					<g>
						<g>
							<g>
								<g>
									<polygon class="st11" points="642.87,552.01 642.85,542.56 638.06,542.54 638.06,542.55 638.1,537.83 647.58,537.83            647.58,542.57 652.32,542.57 652.31,542.56 652.32,552.03 657.05,552.03 657.05,568.62 652.33,568.62 652.33,573.37            642.85,573.37 642.85,568.65 638.08,568.65 638.08,568.65 638.1,566.27 633.37,566.27 633.37,561.54 638.06,561.55            638.06,561.55 638.09,556.78 633.37,556.78 633.37,552.04 642.87,552.01 642.86,556.78 647.58,556.82 647.58,561.51            652.31,561.51 652.31,556.8 647.57,556.82 647.58,552.04 642.87,552.01          "/>
								</g>
							</g>
						</g>
					</g>
					<g>
						<g>
							<g>
								<g>
									<polygon class="st11" points="664.16,516.45 664.18,521.22 668.91,521.22 668.91,542.56 676.02,542.56 676.02,542.55            676.03,547.28 668.93,547.28 668.93,559.13 664.16,559.13 664.16,559.14 664.18,554.42 659.46,554.42 659.46,547.31            664.16,547.31 664.16,542.57 659.45,542.57 659.45,530.71 664.16,530.71 664.16,525.97 659.46,525.97 659.46,516.48            664.16,516.45 664.16,516.45          "/>
								</g>
							</g>
						</g>
					</g>
					<g>
						<g>
							<g>
								<g>
									<path class="st11" d="M633.36,533.07v-21.33h21.33v21.08L633.36,533.07L633.36,533.07z M649.94,528.32v-11.84h-11.82v11.84           H649.94L649.94,528.32z"/>
								</g>
							</g>
						</g>
					</g>
					<g>
						<g>
							<g>
								<polygon class="st11" points="690.28,542.57 690.26,547.28 680.78,547.28 680.78,542.55 676.02,542.55 676.02,542.56           676.03,537.83 685.52,537.83 685.52,542.56 690.28,542.58 690.28,542.57         "/>
							</g>
						</g>
					</g>
					<g>
						<g>
							<g>
								<polygon class="st11" points="664.16,559.13 664.18,563.89 668.9,563.89 668.9,568.63 664.18,568.63 664.18,573.37           659.46,573.37 659.46,559.15 664.17,559.14 664.16,559.13         "/>
							</g>
						</g>
					</g>
					<g>
						<g>
							<g>
								<polygon class="st11" points="664.16,516.45 664.18,511.75 668.91,511.75 668.91,516.46 664.16,516.45 664.16,516.45                   "/>
							</g>
						</g>
					</g>
					<g>
						<g>
							<g>
								<polygon class="st11" points="652.32,542.57 652.32,537.83 657.05,537.83 657.05,542.56 652.31,542.56 652.32,542.57                   "/>
							</g>
						</g>
					</g>
					<g>
						<g>
							<g>
								<polygon class="st11" points="638.06,542.54 638.09,547.28 633.36,547.28 633.36,542.56 638.06,542.55 638.06,542.54                   "/>
							</g>
						</g>
					</g>
					<g>
						<g>
							<g>
								<polygon class="st11" points="638.08,568.65 638.09,573.37 633.37,573.37 633.37,568.65 638.08,568.65 638.08,568.65                   "/>
							</g>
						</g>
					</g>
					<g>
						<g>
							<g>
								<polygon class="st11" points="680.79,559.16 687.88,559.16 687.88,566.25 680.79,566.25 680.79,559.16         "/>
							</g>
						</g>
					</g>
					<g>
						<g>
							<g>
								<polygon class="st11" points="680.77,518.86 687.88,518.86 687.88,525.97 680.99,525.97 680.77,518.86         "/>
							</g>
						</g>
					</g>
				</g>
			</g>
		</g>
		<g>
			<g>
				<g>
					<path class="st12" d="M610.73,545.41c0,9.61-4.38,13.54-13.99,13.54c-9.61,0-13.99-3.93-13.99-13.54       c0-9.61,4.38-14.45,13.99-14.45C606.35,530.96,610.73,535.79,610.73,545.41"/>
					<path class="st11" d="M596.74,559.12c-9.93,0-14.16-4.1-14.16-13.71c0-9.84,4.63-14.62,14.16-14.62       c9.53,0,14.17,4.78,14.17,14.62C610.9,555.02,606.66,559.12,596.74,559.12z M596.74,531.13c-9.43,0-13.82,4.53-13.82,14.27       c0,9.37,4.13,13.37,13.82,13.37c9.69,0,13.82-4,13.82-13.37C610.55,535.66,606.16,531.13,596.74,531.13z"/>
				</g>
				<g>
					<path class="st11" d="M594.01,551.28c5.77,0,8.93-4.78,8.93-8.94c0-0.14,0-0.27-0.01-0.4c0.61-0.45,1.15-0.99,1.57-1.62       c-0.56,0.25-1.17,0.42-1.81,0.49c0.65-0.39,1.15-1,1.38-1.74c-0.61,0.36-1.28,0.63-1.99,0.77c-0.57-0.61-1.39-0.99-2.3-0.99       c-1.72,0-3.14,1.4-3.14,3.14c0,0.25,0.03,0.49,0.08,0.71c-2.61-0.13-4.93-1.38-6.47-3.28c-0.27,0.46-0.42,1-0.42,1.58       c0,1.09,0.56,2.05,1.4,2.61c-0.52-0.01-1-0.15-1.42-0.39c0,0.01,0,0.03,0,0.04c0,1.52,1.08,2.79,2.52,3.08       c-0.27,0.08-0.55,0.11-0.83,0.11c-0.21,0-0.4-0.02-0.59-0.06c0.4,1.25,1.56,2.15,2.94,2.18c-1.08,0.84-2.43,1.35-3.9,1.35       c-0.25,0-0.5-0.01-0.75-0.04C590.58,550.76,592.23,551.28,594.01,551.28"/>
				</g>
			</g>
			<g>
				<g>
					<path class="st12" d="M534.5,545.33c0,9.61-4.38,13.54-13.99,13.54c-9.61,0-14-3.93-14-13.54c0-9.62,4.39-14.45,14-14.45       C530.12,530.87,534.5,535.71,534.5,545.33"/>
					<path class="st11" d="M520.51,559.04c-9.93,0-14.17-4.1-14.17-13.71c0-9.84,4.64-14.62,14.17-14.62       c9.54,0,14.17,4.78,14.17,14.62C534.68,554.94,530.44,559.04,520.51,559.04z M520.51,531.05c-9.3,0-13.83,4.67-13.83,14.28       c0,9.37,4.14,13.37,13.83,13.37c9.69,0,13.82-4,13.82-13.37C534.33,535.58,529.94,531.05,520.51,531.05z"/>
				</g>
				<g>
					<g>
						<g>
							<path class="st11" d="M520.63,537.56c2.41,0,2.7,0.01,3.66,0.05c0.88,0.03,1.36,0.19,1.68,0.31         c0.42,0.16,0.73,0.36,1.04,0.68c0.31,0.31,0.51,0.62,0.67,1.04c0.13,0.32,0.27,0.8,0.32,1.68c0.04,0.95,0.05,1.24,0.05,3.65         c0,2.42-0.01,2.7-0.05,3.66c-0.05,0.89-0.19,1.37-0.32,1.69c-0.16,0.42-0.36,0.72-0.67,1.03c-0.32,0.32-0.63,0.52-1.04,0.68         c-0.32,0.13-0.8,0.27-1.68,0.31c-0.96,0.04-1.24,0.05-3.66,0.05c-2.42,0-2.71-0.01-3.66-0.05c-0.89-0.04-1.37-0.19-1.69-0.31         c-0.42-0.16-0.72-0.36-1.04-0.68c-0.32-0.31-0.52-0.61-0.68-1.03c-0.13-0.32-0.27-0.8-0.31-1.69         c-0.04-0.95-0.05-1.23-0.05-3.66c0-2.42,0.01-2.7,0.05-3.65c0.05-0.88,0.19-1.36,0.31-1.68c0.16-0.42,0.36-0.72,0.68-1.04         c0.31-0.31,0.62-0.51,1.04-0.68c0.32-0.12,0.8-0.28,1.69-0.31C517.92,537.57,518.2,537.56,520.63,537.56 M520.63,535.93         c-2.46,0-2.77,0.01-3.73,0.05c-0.97,0.04-1.63,0.2-2.2,0.42c-0.6,0.23-1.1,0.55-1.6,1.05c-0.51,0.5-0.81,1.01-1.04,1.61         c-0.22,0.57-0.38,1.23-0.42,2.19c-0.05,0.96-0.06,1.28-0.06,3.73c0,2.46,0.01,2.77,0.06,3.73c0.04,0.97,0.2,1.62,0.42,2.2         c0.23,0.6,0.54,1.1,1.04,1.6c0.5,0.51,1,0.81,1.6,1.04c0.57,0.22,1.23,0.38,2.2,0.42c0.96,0.05,1.27,0.05,3.73,0.05         c2.45,0,2.76-0.01,3.73-0.05c0.96-0.04,1.62-0.2,2.2-0.42c0.6-0.23,1.1-0.54,1.6-1.04c0.51-0.5,0.81-1,1.05-1.6         c0.22-0.58,0.37-1.23,0.42-2.2c0.04-0.96,0.06-1.27,0.06-3.73c0-2.45-0.01-2.76-0.06-3.73c-0.05-0.96-0.2-1.62-0.42-2.19         c-0.24-0.6-0.54-1.11-1.05-1.61c-0.5-0.5-1-0.82-1.6-1.05c-0.57-0.22-1.23-0.37-2.2-0.42         C523.39,535.94,523.08,535.93,520.63,535.93"/>
						</g>
					</g>
					<g>
						<g>
							<path class="st11" d="M520.63,540.34c-2.57,0-4.65,2.08-4.65,4.64c0,2.57,2.08,4.65,4.65,4.65c2.56,0,4.64-2.08,4.64-4.65         C525.27,542.41,523.19,540.34,520.63,540.34 M520.63,548c-1.67,0-3.02-1.36-3.02-3.02c0-1.67,1.36-3.01,3.02-3.01         c1.66,0,3.02,1.35,3.02,3.01C523.64,546.65,522.29,548,520.63,548"/>
						</g>
					</g>
					<g>
						<g>
							<path class="st11" d="M526.54,540.15c0,0.6-0.49,1.08-1.09,1.08c-0.61,0-1.09-0.48-1.09-1.08c0-0.6,0.48-1.09,1.09-1.09         C526.05,539.06,526.54,539.55,526.54,540.15"/>
						</g>
					</g>
				</g>
			</g>
			<g>
				<g>
					<path class="st12" d="M572.62,545.41c0,9.61-4.39,13.54-14,13.54c-9.61,0-13.99-3.93-13.99-13.54       c0-9.61,4.38-14.45,13.99-14.45C568.23,530.96,572.62,535.79,572.62,545.41"/>
					<path class="st11" d="M558.62,559.12c-9.93,0-14.17-4.1-14.17-13.71c0-9.84,4.63-14.62,14.17-14.62       c9.53,0,14.17,4.78,14.17,14.62C572.79,555.02,568.56,559.12,558.62,559.12z M558.62,531.13c-9.43,0-13.82,4.53-13.82,14.27       c0,9.37,4.13,13.37,13.82,13.37c9.69,0,13.83-4,13.83-13.37C572.45,535.8,567.92,531.13,558.62,531.13z"/>
				</g>
				<g>
					<path class="st11" d="M560.08,553.79v-7.96h2.67l0.4-3.1h-3.08v-1.98c0-0.9,0.25-1.51,1.54-1.51h1.64v-2.78       c-0.29-0.04-1.26-0.12-2.4-0.12c-2.37,0-3.99,1.45-3.99,4.1v2.29h-2.68v3.1h2.68v7.96H560.08z"/>
				</g>
			</g>
		</g>
		<g>
			<g>
				<g>
					<g>
						<g>
							<path class="st11" d="M504.43,705.74h1.5v3.89h3.89v1.49h-3.89v3.89h-1.5v-3.89h-3.89v-1.49h3.89V705.74z"/>
							<path class="st11" d="M520.57,711.45h1.78v1.5h-1.78v2.34h-1.61v-2.34h-7.4l9.01-12.92V711.45z M518.96,711.45v-6.54v0         l-4.58,6.53H518.96z"/>
							<path class="st11" d="M529.02,702.33h-2.4l0.85-1.5h3.16v14.45h-1.61V702.33z"/>
							<path class="st11" d="M550.85,702.33h-7.9v-1.5h10.67l-9.7,14.71l-1.27-0.75L550.85,702.33z"/>
							<path class="st11" d="M560.03,700.59c1.16,0,2.12,0.38,2.89,1.15c0.77,0.77,1.15,1.73,1.15,2.88c0,0.65-0.16,1.26-0.47,1.84         c-0.31,0.58-0.75,1.02-1.29,1.32c0.66,0.31,1.19,0.77,1.56,1.4c0.38,0.63,0.56,1.32,0.56,2.07c0,1.25-0.42,2.28-1.25,3.08         c-0.84,0.81-1.89,1.21-3.15,1.21c-1.26,0-2.32-0.4-3.15-1.21c-0.84-0.8-1.26-1.83-1.26-3.08c0-0.75,0.19-1.44,0.57-2.07         c0.38-0.63,0.9-1.09,1.56-1.4c-0.55-0.31-0.98-0.75-1.29-1.32c-0.31-0.57-0.47-1.19-0.47-1.84c0-1.15,0.38-2.11,1.15-2.88         C557.9,700.97,558.86,700.59,560.03,700.59z M560.03,708.48c-0.78,0-1.44,0.27-1.98,0.81c-0.55,0.54-0.82,1.19-0.82,1.97         c0,0.78,0.27,1.44,0.82,1.98c0.54,0.53,1.2,0.8,1.98,0.8s1.44-0.27,1.98-0.8c0.54-0.54,0.81-1.19,0.81-1.98         c0-0.78-0.27-1.43-0.81-1.97C561.47,708.75,560.8,708.48,560.03,708.48z M560.03,702.08c-0.69,0-1.28,0.24-1.77,0.73         c-0.49,0.49-0.74,1.08-0.74,1.76c0,0.7,0.24,1.3,0.73,1.79c0.48,0.49,1.08,0.74,1.78,0.74c0.7,0,1.29-0.24,1.78-0.74         c0.48-0.49,0.73-1.09,0.73-1.79c0-0.69-0.25-1.28-0.74-1.76C561.31,702.32,560.71,702.08,560.03,702.08z"/>
							<path class="st11" d="M573.25,700.59l1.21,0.9l-3.33,4.48l0.04,0.04c0.4-0.14,0.82-0.21,1.26-0.21         c1.31,0,2.42,0.46,3.32,1.39c0.9,0.93,1.35,2.06,1.35,3.38c0,1.39-0.48,2.57-1.45,3.52c-0.96,0.96-2.14,1.44-3.54,1.44         c-1.38,0-2.55-0.48-3.53-1.44c-0.97-0.95-1.46-2.12-1.46-3.5c0-1.11,0.44-2.27,1.32-3.47L573.25,700.59z M572.12,714.04         c0.95,0,1.74-0.33,2.4-0.98c0.65-0.66,0.98-1.47,0.98-2.42c0-0.94-0.33-1.74-0.98-2.38c-0.65-0.64-1.45-0.96-2.4-0.96         c-0.96,0-1.76,0.32-2.4,0.96c-0.65,0.64-0.97,1.43-0.97,2.38c0,0.96,0.33,1.77,0.98,2.42         C570.37,713.71,571.17,714.04,572.12,714.04z"/>
							<path class="st11" d="M588.73,713.79h6.09v1.5h-9.35l6.77-7.99c0.65-0.77,0.98-1.57,0.98-2.42c0-0.81-0.28-1.47-0.83-2         c-0.56-0.53-1.24-0.8-2.04-0.8c-0.86,0-1.55,0.28-2.08,0.83c-0.53,0.56-0.81,1.27-0.83,2.14h-1.61         c0.03-1.29,0.46-2.36,1.29-3.2c0.84-0.84,1.89-1.26,3.17-1.26c1.27,0,2.34,0.4,3.22,1.2c0.88,0.8,1.32,1.82,1.32,3.08         c0,1.18-0.37,2.19-1.09,3.05L588.73,713.79z"/>
							<path class="st11" d="M602.72,700.59c1.67,0,3,0.87,3.97,2.62c0.8,1.45,1.2,3.06,1.2,4.87c0,1.93-0.44,3.61-1.34,5.06         c-1,1.59-2.27,2.39-3.83,2.39c-1.65,0-2.96-0.87-3.95-2.61c-0.82-1.44-1.23-3.06-1.23-4.85c0-1.8,0.4-3.42,1.21-4.87         C599.72,701.46,601.04,700.59,602.72,700.59z M602.72,702.08c-1.21,0-2.15,0.76-2.82,2.26c-0.52,1.19-0.77,2.46-0.75,3.81         c0.03,1.34,0.29,2.58,0.81,3.7c0.66,1.46,1.58,2.19,2.76,2.19c1.17,0,2.09-0.73,2.76-2.19c0.51-1.12,0.78-2.36,0.81-3.7         c0.03-1.35-0.22-2.62-0.75-3.81C604.87,702.83,603.93,702.08,602.72,702.08z"/>
							<path class="st11" d="M618.11,711.45h1.78v1.5h-1.78v2.34h-1.61v-2.34h-7.39l9-12.92V711.45z M616.5,711.45v-6.54v0         l-4.57,6.53H616.5z"/>
							<path class="st11" d="M627.02,700.59c1.67,0,3,0.87,3.96,2.62c0.81,1.45,1.2,3.06,1.2,4.87c0,1.93-0.44,3.61-1.34,5.06         c-1,1.59-2.27,2.39-3.83,2.39c-1.65,0-2.97-0.87-3.95-2.61c-0.82-1.44-1.23-3.06-1.23-4.85c0-1.8,0.4-3.42,1.21-4.87         C624.02,701.46,625.34,700.59,627.02,700.59z M627.02,702.08c-1.22,0-2.16,0.76-2.82,2.26c-0.52,1.19-0.77,2.46-0.75,3.81         c0.03,1.34,0.29,2.58,0.8,3.7c0.66,1.46,1.58,2.19,2.76,2.19c1.17,0,2.09-0.73,2.76-2.19c0.51-1.12,0.78-2.36,0.8-3.7         c0.03-1.35-0.22-2.62-0.75-3.81C629.17,702.83,628.23,702.08,627.02,702.08z"/>
							<path class="st11" d="M637.33,713.79h6.1v1.5h-9.35l6.77-7.99c0.65-0.77,0.97-1.57,0.97-2.42c0-0.81-0.28-1.47-0.83-2         c-0.55-0.53-1.24-0.8-2.04-0.8c-0.86,0-1.55,0.28-2.08,0.83c-0.53,0.56-0.81,1.27-0.83,2.14h-1.61         c0.03-1.29,0.46-2.36,1.29-3.2c0.83-0.84,1.89-1.26,3.17-1.26c1.26,0,2.34,0.4,3.22,1.2c0.88,0.8,1.32,1.82,1.32,3.08         c0,1.18-0.37,2.19-1.09,3.05L637.33,713.79z"/>
							<path class="st11" d="M655.45,702.33h-4.62l-0.93,3.09l0.86-0.08c1.43,0,2.59,0.48,3.47,1.44c0.89,0.96,1.33,2.16,1.33,3.6         c0,1.5-0.51,2.73-1.52,3.7c-1.02,0.97-2.28,1.46-3.79,1.46c-1.94,0-3.42-0.86-4.43-2.58l1.28-0.92         c0.76,1.34,1.82,2.01,3.2,2.01c1.07,0,1.95-0.35,2.62-1.04c0.68-0.7,1.02-1.58,1.02-2.65c0-1.02-0.34-1.86-1.02-2.52         c-0.69-0.66-1.55-0.99-2.58-0.99c-0.88,0-1.8,0.3-2.74,0.92l2.09-6.92h5.75V702.33z"/>
						</g>
					</g>
					<g>
						<path class="st11" d="M688.96,698.99c6.45,0,11.69,5.23,11.69,11.69c0,6.45-5.24,11.69-11.69,11.69        c-6.46,0-11.69-5.24-11.69-11.69C677.27,704.22,682.5,698.99,688.96,698.99 M688.96,697.27c-7.39,0-13.41,6.02-13.41,13.41        c0,7.39,6.02,13.4,13.41,13.4c7.39,0,13.4-6.02,13.4-13.4C702.36,703.29,696.35,697.27,688.96,697.27L688.96,697.27z"/>
						<path class="st11" d="M687.68,708.42c0.61-0.71-0.05-1.64-0.47-2.28c-0.23-0.36-0.57-0.89-1.05-0.95        c-0.45-0.04-0.86,0.46-1.16,0.73c-0.72,0.66-1.13,1.51-1.16,2.48c0,0.11,0,0.3-0.02,0.13c0.07,0.59,0.14,1.14,0.35,1.69        c0.19,0.52,0.45,1.01,0.75,1.47c0.65,0.98,1.39,1.92,2.28,2.7c0.86,0.77,1.84,1.46,2.99,1.71c1.08,0.22,2.14-0.01,2.99-0.71        c0.31-0.25,0.88-0.62,0.9-1.06c0.03-0.44-0.32-0.79-0.62-1.06c-0.64-0.57-1.59-1.53-2.47-0.84c-0.34,0.29-0.7,0.8-1.15,0.87        c-0.46,0.07-0.9-0.25-1.22-0.51c-0.73-0.6-1.45-1.41-1.88-2.26c-0.18-0.37-0.34-0.86-0.08-1.24        C686.93,708.94,687.39,708.76,687.68,708.42z"/>
					</g>
				</g>
				<g>
					<g>
						<g>
							<path class="st11" d="M535.39,656.85h6.01c0.03,1.1-0.05,2-0.23,2.7c-0.23,0.87-0.65,1.67-1.27,2.4         c-0.65,0.77-1.45,1.36-2.39,1.78c-0.94,0.42-1.93,0.63-2.95,0.63c-2.06,0-3.81-0.73-5.26-2.18c-1.45-1.45-2.17-3.2-2.17-5.26         c0-2.11,0.73-3.88,2.18-5.34c1.46-1.45,3.24-2.18,5.35-2.18c2.48,0,4.52,1.04,6.11,3.12l-1.17,1.09         c-1.29-1.81-2.95-2.72-4.96-2.72c-1.66,0-3.06,0.59-4.2,1.76c-1.14,1.17-1.71,2.6-1.71,4.27c0,1.58,0.57,2.97,1.71,4.15         c1.15,1.18,2.5,1.77,4.08,1.77c1.34,0,2.51-0.41,3.52-1.25c1.09-0.87,1.63-1.96,1.63-3.28h-4.29V656.85z"/>
							<path class="st11" d="M545.47,655.1v0.98c0.62-0.82,1.29-1.23,2.02-1.23c0.43,0,0.89,0.14,1.4,0.42l-0.73,1.4         c-0.39-0.27-0.7-0.4-0.92-0.4c-1.17,0-1.76,1.11-1.76,3.34v4.5h-1.53v-9.01H545.47z"/>
							<path class="st11" d="M552.19,655.1v5.02c0,0.91,0.11,1.57,0.33,1.98c0.31,0.56,0.87,0.84,1.71,0.84         c0.83,0,1.4-0.28,1.7-0.84c0.22-0.41,0.33-1.07,0.33-1.98v-5.02h1.53v5.19c0,2.71-1.19,4.06-3.56,4.06         c-2.38,0-3.57-1.35-3.57-4.06v-5.19H552.19z"/>
							<path class="st11" d="M565.85,656.52l-1.28,0.67c-0.27-0.61-0.68-0.92-1.23-0.92c-0.28,0-0.54,0.09-0.77,0.29         c-0.23,0.19-0.34,0.43-0.34,0.71c0,0.43,0.36,0.82,1.09,1.15c1.16,0.52,1.82,0.84,1.99,0.96c0.73,0.5,1.1,1.18,1.1,2.05         c0,0.86-0.3,1.56-0.88,2.11c-0.59,0.55-1.31,0.82-2.16,0.82c-0.76,0-1.41-0.2-1.98-0.6c-0.56-0.4-0.96-0.96-1.21-1.68         l1.36-0.58c0.43,0.96,1.04,1.44,1.84,1.44c0.42,0,0.77-0.13,1.04-0.38c0.27-0.26,0.41-0.59,0.41-1         c0-0.55-0.39-1.02-1.16-1.42c-0.41-0.19-1.02-0.47-1.84-0.85c-0.7-0.46-1.06-1.09-1.06-1.89c0-0.75,0.26-1.36,0.78-1.84         c0.52-0.47,1.15-0.71,1.91-0.71c0.51,0,0.99,0.16,1.43,0.47C565.33,655.64,565.65,656.04,565.85,656.52z"/>
							<path class="st11" d="M573.85,656.52l-1.28,0.67c-0.27-0.61-0.68-0.92-1.23-0.92c-0.28,0-0.54,0.09-0.77,0.29         c-0.23,0.19-0.34,0.43-0.34,0.71c0,0.43,0.36,0.82,1.09,1.15c1.16,0.52,1.82,0.84,1.99,0.96c0.73,0.5,1.09,1.18,1.09,2.05         c0,0.86-0.29,1.56-0.88,2.11c-0.59,0.55-1.31,0.82-2.17,0.82c-0.75,0-1.41-0.2-1.97-0.6c-0.56-0.4-0.96-0.96-1.21-1.68         l1.36-0.58c0.43,0.96,1.05,1.44,1.84,1.44c0.42,0,0.77-0.13,1.04-0.38c0.28-0.26,0.41-0.59,0.41-1         c0-0.55-0.39-1.02-1.17-1.42c-0.41-0.19-1.02-0.47-1.84-0.85c-0.71-0.46-1.05-1.09-1.05-1.89c0-0.75,0.26-1.36,0.78-1.84         c0.51-0.47,1.15-0.71,1.9-0.71c0.51,0,0.99,0.16,1.43,0.47C573.32,655.64,573.64,656.04,573.85,656.52z"/>
							<path class="st11" d="M584.75,659.93h-7.07c0.01,0.87,0.29,1.59,0.85,2.15c0.55,0.57,1.25,0.85,2.11,0.85         c1.14,0,2.05-0.62,2.74-1.86l1.3,0.74c-0.91,1.69-2.29,2.53-4.16,2.53c-1.33,0-2.39-0.44-3.2-1.32         c-0.8-0.88-1.21-1.99-1.21-3.32c0-1.39,0.38-2.54,1.13-3.43c0.79-0.96,1.87-1.44,3.24-1.44c1.39,0,2.49,0.51,3.27,1.53         C584.49,657.34,584.83,658.52,584.75,659.93z M577.75,658.63h5.38c-0.1-0.67-0.4-1.23-0.9-1.68         c-0.5-0.46-1.08-0.68-1.74-0.68c-0.68,0-1.28,0.22-1.81,0.68C578.15,657.41,577.84,657.97,577.75,658.63z"/>
							<path class="st11" d="M588.74,655.1v1.09c0.66-0.89,1.52-1.34,2.59-1.34c2.06,0,3.09,1.3,3.09,3.91v5.35h-1.53v-5.08         c0-0.91-0.1-1.55-0.29-1.93c-0.27-0.55-0.81-0.82-1.61-0.82c-0.95,0-1.59,0.39-1.92,1.17c-0.22,0.51-0.33,1.31-0.33,2.4v4.27         h-1.53v-9.01H588.74z"/>
							<path class="st11" d="M614.95,650.83v1.99c-1.24-1.28-2.71-1.92-4.41-1.92c-1.62,0-3,0.59-4.13,1.76         c-1.13,1.17-1.7,2.58-1.7,4.22c0,1.64,0.57,3.04,1.71,4.21c1.14,1.18,2.53,1.76,4.16,1.76c1.64,0,3.09-0.64,4.37-1.92v1.99         c-1.3,0.95-2.74,1.42-4.31,1.42c-2.07,0-3.84-0.72-5.32-2.15c-1.47-1.44-2.21-3.19-2.21-5.26c0-2.1,0.73-3.88,2.19-5.34         c1.46-1.46,3.24-2.19,5.34-2.19C612.25,649.41,613.68,649.89,614.95,650.83z"/>
							<path class="st11" d="M625.83,659.93h-7.07c0.01,0.87,0.3,1.59,0.85,2.15c0.55,0.57,1.25,0.85,2.11,0.85         c1.13,0,2.05-0.62,2.74-1.86l1.3,0.74c-0.91,1.69-2.29,2.53-4.16,2.53c-1.33,0-2.39-0.44-3.2-1.32         c-0.8-0.88-1.21-1.99-1.21-3.32c0-1.39,0.38-2.54,1.13-3.43c0.79-0.96,1.87-1.44,3.24-1.44c1.39,0,2.48,0.51,3.28,1.53         C625.58,657.34,625.91,658.52,625.83,659.93z M618.84,658.63h5.38c-0.1-0.67-0.4-1.23-0.9-1.68         c-0.5-0.46-1.08-0.68-1.74-0.68c-0.68,0-1.28,0.22-1.81,0.68C619.24,657.41,618.93,657.97,618.84,658.63z"/>
							<path class="st11" d="M629.82,655.1v1.09c0.65-0.89,1.52-1.34,2.58-1.34c2.06,0,3.09,1.3,3.09,3.91v5.35h-1.54v-5.08         c0-0.91-0.1-1.55-0.29-1.93c-0.27-0.55-0.81-0.82-1.61-0.82c-0.94,0-1.58,0.39-1.92,1.17c-0.22,0.51-0.32,1.31-0.32,2.4v4.27         h-1.54v-9.01H629.82z"/>
							<path class="st11" d="M640.36,656.52v7.59h-1.54v-7.59h-0.94v-1.42h0.94v-3.24h1.54v3.24h1.61v1.42H640.36z"/>
							<path class="st11" d="M651.53,659.93h-7.07c0.02,0.87,0.3,1.59,0.84,2.15c0.55,0.57,1.25,0.85,2.11,0.85         c1.14,0,2.05-0.62,2.74-1.86l1.3,0.74c-0.91,1.69-2.29,2.53-4.16,2.53c-1.33,0-2.39-0.44-3.2-1.32         c-0.8-0.88-1.21-1.99-1.21-3.32c0-1.39,0.38-2.54,1.13-3.43c0.79-0.96,1.87-1.44,3.24-1.44c1.39,0,2.48,0.51,3.27,1.53         C651.28,657.34,651.61,658.52,651.53,659.93z M644.54,658.63h5.38c-0.1-0.67-0.4-1.23-0.9-1.68         c-0.5-0.46-1.08-0.68-1.74-0.68c-0.68,0-1.28,0.22-1.81,0.68C644.94,657.41,644.63,657.97,644.54,658.63z"/>
							<path class="st11" d="M655.44,655.1v0.98c0.62-0.82,1.29-1.23,2.02-1.23c0.43,0,0.89,0.14,1.4,0.42l-0.73,1.4         c-0.39-0.27-0.7-0.4-0.92-0.4c-1.18,0-1.77,1.11-1.77,3.34v4.5h-1.53v-9.01H655.44z"/>
							<path class="st11" d="M398.66,679.84h6.02c0.03,1.1-0.05,2-0.23,2.7c-0.23,0.87-0.65,1.67-1.26,2.39         c-0.65,0.77-1.45,1.36-2.4,1.78c-0.95,0.42-1.93,0.63-2.95,0.63c-2.06,0-3.81-0.73-5.26-2.18c-1.45-1.45-2.17-3.2-2.17-5.26         c0-2.11,0.73-3.89,2.18-5.34c1.46-1.45,3.24-2.17,5.35-2.17c2.48,0,4.52,1.04,6.11,3.12l-1.17,1.09         c-1.29-1.81-2.94-2.72-4.96-2.72c-1.66,0-3.06,0.59-4.2,1.76c-1.14,1.18-1.71,2.6-1.71,4.27c0,1.58,0.57,2.97,1.71,4.15         c1.15,1.18,2.5,1.77,4.07,1.77c1.34,0,2.52-0.41,3.53-1.25c1.08-0.87,1.63-1.96,1.63-3.28h-4.29V679.84z"/>
							<path class="st11" d="M408.74,678.1v0.98c0.62-0.82,1.29-1.23,2.02-1.23c0.43,0,0.89,0.14,1.4,0.42l-0.73,1.4         c-0.4-0.27-0.7-0.4-0.92-0.4c-1.17,0-1.76,1.11-1.76,3.34v4.51h-1.53v-9.01H408.74z"/>
							<path class="st11" d="M415.47,678.1v5.02c0,0.91,0.1,1.57,0.33,1.97c0.31,0.56,0.88,0.85,1.7,0.85c0.83,0,1.4-0.28,1.71-0.85         c0.22-0.41,0.32-1.07,0.32-1.97v-5.02h1.53v5.19c0,2.71-1.19,4.06-3.57,4.06c-2.37,0-3.56-1.36-3.56-4.06v-5.19H415.47z"/>
							<path class="st11" d="M429.13,679.52l-1.28,0.67c-0.27-0.61-0.68-0.92-1.23-0.92c-0.28,0-0.54,0.1-0.77,0.29         c-0.23,0.19-0.34,0.43-0.34,0.71c0,0.43,0.36,0.82,1.09,1.15c1.16,0.52,1.82,0.84,1.99,0.96c0.73,0.5,1.09,1.18,1.09,2.05         c0,0.86-0.29,1.56-0.88,2.11c-0.59,0.55-1.31,0.82-2.17,0.82c-0.75,0-1.41-0.2-1.97-0.6c-0.56-0.4-0.96-0.96-1.2-1.68         l1.36-0.57c0.43,0.96,1.05,1.44,1.84,1.44c0.42,0,0.77-0.13,1.04-0.39c0.27-0.25,0.41-0.59,0.41-1         c0-0.55-0.39-1.02-1.17-1.42c-0.4-0.19-1.02-0.47-1.84-0.84c-0.7-0.46-1.05-1.09-1.05-1.9c0-0.75,0.26-1.37,0.78-1.84         c0.52-0.47,1.15-0.71,1.9-0.71c0.51,0,0.99,0.16,1.43,0.47C428.6,678.63,428.93,679.03,429.13,679.52z"/>
							<path class="st11" d="M437.12,679.52l-1.29,0.67c-0.27-0.61-0.68-0.92-1.22-0.92c-0.28,0-0.54,0.1-0.77,0.29         c-0.23,0.19-0.35,0.43-0.35,0.71c0,0.43,0.36,0.82,1.09,1.15c1.16,0.52,1.83,0.84,1.99,0.96c0.73,0.5,1.09,1.18,1.09,2.05         c0,0.86-0.29,1.56-0.88,2.11c-0.59,0.55-1.31,0.82-2.17,0.82c-0.75,0-1.41-0.2-1.97-0.6c-0.56-0.4-0.97-0.96-1.21-1.68         l1.36-0.57c0.43,0.96,1.05,1.44,1.84,1.44c0.42,0,0.77-0.13,1.04-0.39c0.27-0.25,0.41-0.59,0.41-1         c0-0.55-0.39-1.02-1.17-1.42c-0.41-0.19-1.02-0.47-1.84-0.84c-0.7-0.46-1.06-1.09-1.06-1.9c0-0.75,0.26-1.37,0.78-1.84         c0.52-0.47,1.15-0.71,1.91-0.71c0.51,0,0.99,0.16,1.43,0.47C436.6,678.63,436.92,679.03,437.12,679.52z"/>
							<path class="st11" d="M448.02,682.93h-7.07c0.01,0.87,0.29,1.59,0.84,2.16c0.55,0.57,1.25,0.85,2.11,0.85         c1.13,0,2.05-0.62,2.74-1.86l1.3,0.75c-0.91,1.69-2.29,2.53-4.16,2.53c-1.33,0-2.39-0.44-3.2-1.32         c-0.81-0.88-1.21-1.99-1.21-3.32c0-1.39,0.38-2.53,1.13-3.43c0.79-0.96,1.87-1.44,3.24-1.44c1.39,0,2.48,0.51,3.27,1.54         C447.77,680.33,448.1,681.51,448.02,682.93z M441.03,681.62h5.39c-0.1-0.66-0.4-1.22-0.9-1.67c-0.5-0.45-1.08-0.68-1.75-0.68         c-0.68,0-1.28,0.23-1.81,0.68C441.43,680.4,441.12,680.96,441.03,681.62z"/>
							<path class="st11" d="M452.01,678.1v1.09c0.66-0.9,1.52-1.34,2.58-1.34c2.06,0,3.09,1.3,3.09,3.91v5.35h-1.53v-5.08         c0-0.91-0.1-1.55-0.29-1.94c-0.27-0.55-0.8-0.82-1.61-0.82c-0.94,0-1.58,0.39-1.91,1.17c-0.22,0.51-0.33,1.31-0.33,2.4v4.27         h-1.53v-9.01H452.01z"/>
							<path class="st11" d="M461.29,678.1l2.65,6.1l2.8-6.79l2.81,6.78l2.68-6.09h1.75l-4.46,9.62l-2.78-6.7l-2.79,6.71l-4.42-9.63         H461.29z"/>
							<path class="st11" d="M483.68,682.93h-7.07c0.01,0.87,0.3,1.59,0.85,2.16c0.55,0.57,1.25,0.85,2.11,0.85         c1.14,0,2.05-0.62,2.74-1.86l1.3,0.75c-0.91,1.69-2.29,2.53-4.16,2.53c-1.33,0-2.39-0.44-3.2-1.32         c-0.81-0.88-1.21-1.99-1.21-3.32c0-1.39,0.38-2.53,1.13-3.43c0.79-0.96,1.87-1.44,3.24-1.44c1.39,0,2.49,0.51,3.28,1.54         C483.43,680.33,483.76,681.51,483.68,682.93z M476.69,681.62h5.38c-0.1-0.66-0.4-1.22-0.9-1.67         c-0.5-0.45-1.08-0.68-1.74-0.68c-0.68,0-1.28,0.23-1.81,0.68C477.09,680.4,476.78,680.96,476.69,681.62z"/>
							<path class="st11" d="M494.28,678.1v8.57c0,0.93-0.04,1.61-0.12,2.03c-0.12,0.7-0.39,1.32-0.8,1.84         c-0.83,1.06-1.99,1.59-3.49,1.59c-1.28,0-2.33-0.38-3.15-1.13c-0.83-0.75-1.25-1.76-1.28-3.03h1.53         c0.01,0.84,0.29,1.5,0.82,2c0.53,0.5,1.22,0.74,2.06,0.74c1.93,0,2.89-1.26,2.89-3.79v-1.08h-0.04c-0.77,1-1.81,1.5-3.12,1.5         c-1.29,0-2.34-0.47-3.14-1.42c-0.77-0.88-1.15-1.98-1.15-3.3c0-1.33,0.39-2.45,1.17-3.35c0.82-0.96,1.88-1.44,3.18-1.44         c1.28,0,2.3,0.51,3.06,1.54h0.04v-1.28H494.28z M489.8,679.27c-0.87,0-1.57,0.32-2.12,0.95c-0.54,0.63-0.81,1.39-0.81,2.29         c0,0.93,0.25,1.72,0.77,2.37c0.55,0.7,1.28,1.05,2.18,1.05c0.95,0,1.69-0.34,2.24-1.02c0.51-0.63,0.76-1.42,0.76-2.4         c0-0.93-0.27-1.71-0.82-2.33C491.45,679.58,490.72,679.27,489.8,679.27z"/>
							<path class="st11" d="M507.83,674.15h-2.4l0.84-1.5h3.17v14.45h-1.61V674.15z"/>
							<path class="st11" d="M520.44,672.41c1.68,0,3,0.87,3.97,2.62c0.81,1.45,1.21,3.07,1.21,4.87c0,1.93-0.44,3.61-1.34,5.06         c-1,1.6-2.27,2.4-3.83,2.4c-1.65,0-2.96-0.87-3.95-2.61c-0.82-1.45-1.23-3.06-1.23-4.85c0-1.8,0.4-3.42,1.21-4.87         C517.44,673.28,518.77,672.41,520.44,672.41z M520.44,673.9c-1.21,0-2.15,0.75-2.82,2.26c-0.52,1.19-0.78,2.46-0.75,3.81         c0.02,1.34,0.29,2.57,0.8,3.7c0.66,1.46,1.58,2.19,2.76,2.19c1.17,0,2.1-0.73,2.76-2.19c0.51-1.12,0.78-2.36,0.8-3.7         c0.03-1.36-0.22-2.62-0.75-3.81C522.59,674.66,521.65,673.9,520.44,673.9z"/>
							<path class="st11" d="M529.6,685l1.42,0.5l-2.16,4.9l-1.04-0.42L529.6,685z"/>
							<path class="st11" d="M548.32,683.27h1.78v1.49h-1.78v2.34h-1.61v-2.34h-7.4l9.01-12.91V683.27z M546.71,683.27v-6.53l0,0         l-4.58,6.53H546.71z"/>
							<path class="st11" d="M556.77,674.15h-2.39l0.84-1.5h3.17v14.45h-1.61V674.15z"/>
							<path class="st11" d="M568.69,680.27v-1.5c1.9-0.08,2.86-0.86,2.86-2.34c0-0.77-0.23-1.38-0.69-1.84         c-0.46-0.46-1.07-0.69-1.84-0.69c-1.45,0-2.24,0.77-2.38,2.32h-1.59c0.12-1.17,0.52-2.1,1.22-2.79         c0.7-0.68,1.62-1.02,2.79-1.02c1.19,0,2.17,0.36,2.94,1.08c0.77,0.72,1.16,1.68,1.16,2.87c0,0.67-0.17,1.29-0.5,1.86         c-0.33,0.58-0.78,1.01-1.36,1.3c0.66,0.3,1.17,0.78,1.54,1.43c0.35,0.64,0.53,1.35,0.53,2.12c0,1.27-0.43,2.3-1.29,3.1         c-0.86,0.8-1.93,1.2-3.19,1.2c-1.2,0-2.2-0.36-3.01-1.09c-0.84-0.75-1.27-1.72-1.28-2.91h1.57c0.04,0.73,0.33,1.33,0.86,1.8         c0.54,0.47,1.18,0.71,1.92,0.71c0.81,0,1.48-0.28,2.01-0.83c0.54-0.56,0.81-1.24,0.81-2.06c0-0.91-0.29-1.59-0.84-2.05         C570.35,680.46,569.61,680.24,568.69,680.27z"/>
							<path class="st11" d="M580.84,680.27v-1.5c1.9-0.08,2.85-0.86,2.85-2.34c0-0.77-0.23-1.38-0.69-1.84         c-0.46-0.46-1.07-0.69-1.84-0.69c-1.44,0-2.23,0.77-2.38,2.32h-1.59c0.12-1.17,0.52-2.1,1.22-2.79         c0.69-0.68,1.62-1.02,2.79-1.02c1.19,0,2.17,0.36,2.94,1.08c0.77,0.72,1.16,1.68,1.16,2.87c0,0.67-0.17,1.29-0.5,1.86         c-0.33,0.58-0.79,1.01-1.36,1.3c0.66,0.3,1.17,0.78,1.53,1.43c0.36,0.64,0.54,1.35,0.54,2.12c0,1.27-0.43,2.3-1.29,3.1         s-1.92,1.2-3.19,1.2c-1.2,0-2.2-0.36-3.01-1.09c-0.84-0.75-1.27-1.72-1.28-2.91h1.57c0.04,0.73,0.33,1.33,0.86,1.8         c0.54,0.47,1.18,0.71,1.92,0.71c0.81,0,1.48-0.28,2.02-0.83c0.53-0.56,0.8-1.24,0.8-2.06c0-0.91-0.28-1.59-0.85-2.05         C582.5,680.46,581.76,680.24,580.84,680.27z"/>
							<path class="st11" d="M597.09,680.78v6.33h-1.61v-14.45h2.38c1.65,0,2.84,0.26,3.58,0.77c1.09,0.75,1.63,1.85,1.63,3.3         c0,1.38-0.47,2.42-1.42,3.12c-0.83,0.62-1.96,0.94-3.39,0.94H597.09z M597.09,674.15v5.14h1.07c2.2,0,3.3-0.87,3.3-2.61         c0-1.06-0.4-1.78-1.19-2.15c-0.54-0.26-1.4-0.38-2.59-0.38H597.09z"/>
							<path class="st11" d="M606.92,678.1v0.98c0.62-0.82,1.29-1.23,2.02-1.23c0.43,0,0.89,0.14,1.4,0.42l-0.73,1.4         c-0.4-0.27-0.7-0.4-0.92-0.4c-1.17,0-1.76,1.11-1.76,3.34v4.51h-1.53v-9.01H606.92z"/>
							<path class="st11" d="M620.47,678.1v9.01h-1.53v-1.25c-0.78,1-1.82,1.5-3.12,1.5c-1.29,0-2.34-0.48-3.16-1.44         c-0.78-0.89-1.17-1.99-1.17-3.3c0-1.34,0.39-2.46,1.16-3.35c0.81-0.94,1.87-1.42,3.2-1.42c1.27,0,2.31,0.51,3.1,1.54v-1.28         H620.47z M615.98,679.27c-0.87,0-1.57,0.32-2.12,0.95c-0.54,0.63-0.81,1.39-0.81,2.29c0,0.93,0.25,1.72,0.77,2.37         c0.55,0.7,1.28,1.05,2.18,1.05c0.95,0,1.69-0.34,2.24-1.02c0.51-0.63,0.77-1.42,0.77-2.4c0-0.93-0.27-1.71-0.82-2.33         C617.64,679.58,616.91,679.27,615.98,679.27z"/>
							<path class="st11" d="M625.24,679.52v7.59h-1.53v-7.59h-0.94v-1.42h0.94v-3.24h1.53v3.24h1.61v1.42H625.24z"/>
							<path class="st11" d="M630.19,679.52v7.59h-1.54v-7.59h-0.94v-1.42h0.94v-3.24h1.54v3.24h1.61v1.42H630.19z"/>
							<path class="st11" d="M641.36,682.93h-7.07c0.01,0.87,0.3,1.59,0.84,2.16c0.55,0.57,1.25,0.85,2.11,0.85         c1.14,0,2.05-0.62,2.74-1.86l1.3,0.75c-0.91,1.69-2.29,2.53-4.16,2.53c-1.33,0-2.39-0.44-3.2-1.32         c-0.81-0.88-1.21-1.99-1.21-3.32c0-1.39,0.38-2.53,1.13-3.43c0.79-0.96,1.87-1.44,3.24-1.44c1.39,0,2.48,0.51,3.28,1.54         C641.1,680.33,641.43,681.51,641.36,682.93z M634.36,681.62h5.38c-0.1-0.66-0.4-1.22-0.9-1.67c-0.5-0.45-1.08-0.68-1.75-0.68         c-0.68,0-1.28,0.23-1.81,0.68C634.76,680.4,634.45,680.96,634.36,681.62z"/>
							<path class="st11" d="M644.86,673.61c0.29,0,0.55,0.11,0.77,0.33c0.22,0.22,0.33,0.47,0.33,0.77c0,0.31-0.1,0.57-0.32,0.78         c-0.21,0.21-0.47,0.32-0.78,0.32c-0.31,0-0.56-0.1-0.78-0.32c-0.21-0.21-0.31-0.47-0.31-0.78c0-0.29,0.11-0.55,0.32-0.77         C644.31,673.72,644.57,673.61,644.86,673.61z M645.63,678.1v9.01h-1.53v-9.01H645.63z"/>
							<path class="st11" d="M650.71,678.1v1.09c0.66-0.9,1.52-1.34,2.58-1.34c2.06,0,3.09,1.3,3.09,3.91v5.35h-1.53v-5.08         c0-0.91-0.1-1.55-0.29-1.94c-0.27-0.55-0.8-0.82-1.61-0.82c-0.94,0-1.58,0.39-1.92,1.17c-0.22,0.51-0.32,1.31-0.32,2.4v4.27         h-1.53v-9.01H650.71z"/>
						</g>
					</g>
					<g>
						<path class="st11" d="M688.97,657.27c6.45,0,11.69,5.24,11.69,11.69s-5.24,11.69-11.69,11.69c-6.46,0-11.69-5.24-11.69-11.69        S682.52,657.27,688.97,657.27 M688.97,655.55c-7.39,0-13.41,6.02-13.41,13.41c0,7.39,6.01,13.4,13.41,13.4        c7.39,0,13.4-6.01,13.4-13.4C702.37,661.57,696.37,655.55,688.97,655.55L688.97,655.55z"/>
						<path class="st11" d="M693.44,667.16c0-2.46-2-4.47-4.47-4.47c-2.47,0-4.46,2.01-4.46,4.47c0,0.92,0.28,1.78,0.77,2.48l0,0        v0.01l0,0l3.69,5.55l3.71-5.56h-0.01C693.16,668.95,693.44,668.09,693.44,667.16z M688.97,669.65c-1.37,0-2.49-1.11-2.49-2.48        c0-1.37,1.11-2.48,2.49-2.48c1.38,0,2.48,1.11,2.48,2.48C691.45,668.54,690.36,669.65,688.97,669.65z"/>
					</g>
				</g>
				<g>
					<g>
						<g>
							<path class="st11" d="M561.06,747.33l0.27-1.17h1.37l-0.96,4.89c-0.1,0.53-0.16,0.88-0.16,1.06c0,0.38,0.14,0.57,0.42,0.57         c0.58,0,1.1-0.48,1.57-1.46c0.4-0.8,0.61-1.54,0.65-2.2c0.09-1.64-0.36-2.93-1.35-3.89c-0.99-0.96-2.32-1.44-3.98-1.44         c-1.73,0-3.15,0.58-4.25,1.73c-1.09,1.16-1.64,2.61-1.64,4.36c0,1.8,0.59,3.27,1.75,4.4c1.17,1.13,2.65,1.69,4.46,1.69         c1.62,0,2.84-0.29,3.66-0.88l1.34,0.98c-1.66,0.85-3.38,1.29-5.15,1.29c-2.14,0-3.91-0.72-5.32-2.14         c-1.41-1.42-2.12-3.2-2.12-5.34c0-2.12,0.69-3.9,2.08-5.33c1.38-1.43,3.13-2.15,5.24-2.15c1.75,0,3.25,0.55,4.51,1.65         c1.43,1.27,2.14,2.73,2.14,4.39c0,1.38-0.33,2.63-0.99,3.76c-0.79,1.33-1.84,1.97-3.14,1.91c-0.57-0.02-0.92-0.41-1.03-1.17         c-0.78,0.78-1.65,1.17-2.61,1.17c-0.91,0-1.67-0.36-2.3-1.09c-0.61-0.69-0.92-1.5-0.92-2.42c0-1.19,0.34-2.22,1.03-3.1         c0.75-0.95,1.71-1.42,2.87-1.42C559.52,745.99,560.37,746.43,561.06,747.33z M555.95,750.37c0,0.66,0.18,1.21,0.55,1.65         c0.36,0.43,0.87,0.65,1.53,0.65c0.83,0,1.48-0.35,1.95-1.03c0.42-0.6,0.63-1.34,0.63-2.21c0-0.63-0.18-1.14-0.52-1.54         c-0.35-0.4-0.84-0.6-1.45-0.6c-0.75,0-1.4,0.33-1.93,1C556.2,748.9,555.95,749.59,555.95,750.37z"/>
							<path class="st11" d="M576.22,748v8.58c0,0.93-0.04,1.61-0.12,2.03c-0.13,0.7-0.4,1.32-0.8,1.84         c-0.83,1.06-1.99,1.59-3.49,1.59c-1.28,0-2.33-0.37-3.15-1.12c-0.82-0.75-1.25-1.76-1.27-3.03h1.53         c0.01,0.84,0.28,1.5,0.81,2c0.53,0.5,1.22,0.74,2.06,0.74c1.93,0,2.89-1.26,2.89-3.79v-1.08h-0.04         c-0.77,0.99-1.81,1.5-3.12,1.5c-1.29,0-2.34-0.47-3.14-1.42c-0.77-0.88-1.15-1.98-1.15-3.3c0-1.33,0.39-2.45,1.17-3.35         c0.82-0.96,1.88-1.44,3.18-1.44c1.28,0,2.3,0.51,3.07,1.54h0.04V748H576.22z M571.74,749.17c-0.87,0-1.57,0.32-2.12,0.95         c-0.54,0.63-0.82,1.4-0.82,2.29c0,0.93,0.26,1.72,0.77,2.38c0.55,0.7,1.28,1.05,2.19,1.05c0.94,0,1.69-0.34,2.24-1.02         c0.51-0.62,0.77-1.42,0.77-2.39c0-0.93-0.28-1.71-0.83-2.33C573.39,749.48,572.66,749.17,571.74,749.17z"/>
							<path class="st11" d="M581.07,748v0.98c0.52-0.82,1.25-1.23,2.17-1.23c1.15,0,1.99,0.5,2.5,1.5c0.54-1,1.44-1.5,2.71-1.5         c1.92,0,2.88,1.26,2.88,3.78V757h-1.53v-5.23c0-0.79-0.08-1.37-0.23-1.74c-0.24-0.57-0.72-0.86-1.42-0.86         c-1.3,0-1.95,1.03-1.95,3.07V757h-1.53v-5.12c0-1.81-0.54-2.72-1.61-2.72c-1.33,0-1.99,1.06-1.99,3.18V757h-1.53V748H581.07z         "/>
							<path class="st11" d="M602.84,748V757h-1.53v-1.24c-0.78,0.99-1.83,1.5-3.12,1.5c-1.28,0-2.34-0.48-3.16-1.44         c-0.78-0.9-1.18-1.99-1.18-3.3c0-1.34,0.39-2.46,1.16-3.35c0.81-0.94,1.88-1.42,3.2-1.42c1.27,0,2.31,0.51,3.1,1.54V748         H602.84z M598.35,749.17c-0.87,0-1.57,0.32-2.12,0.95c-0.54,0.63-0.81,1.4-0.81,2.29c0,0.93,0.25,1.72,0.76,2.38         c0.55,0.7,1.28,1.05,2.19,1.05c0.95,0,1.69-0.34,2.24-1.02c0.51-0.62,0.77-1.42,0.77-2.39c0-0.93-0.27-1.71-0.82-2.33         C600.01,749.48,599.28,749.17,598.35,749.17z"/>
							<path class="st11" d="M607.05,743.51c0.3,0,0.55,0.11,0.77,0.33c0.22,0.22,0.33,0.47,0.33,0.77c0,0.3-0.11,0.56-0.32,0.78         c-0.21,0.21-0.47,0.31-0.78,0.31c-0.3,0-0.56-0.1-0.78-0.31c-0.21-0.21-0.31-0.47-0.31-0.78c0-0.29,0.11-0.55,0.32-0.77         C606.51,743.62,606.76,743.51,607.05,743.51z M607.82,748V757h-1.53V748H607.82z"/>
							<path class="st11" d="M612.86,741.19V757h-1.54v-15.81H612.86z"/>
							<path class="st11" d="M617.56,755.11c0.29,0,0.55,0.1,0.76,0.31c0.21,0.2,0.32,0.45,0.32,0.74c0,0.3-0.1,0.55-0.32,0.77         c-0.21,0.22-0.46,0.33-0.76,0.33c-0.29,0-0.55-0.11-0.76-0.33c-0.21-0.22-0.32-0.47-0.32-0.77c0-0.29,0.11-0.54,0.32-0.74         C617.01,755.21,617.26,755.11,617.56,755.11z"/>
							<path class="st11" d="M629.02,748.65v2.03h-0.04c-0.79-1.01-1.72-1.52-2.8-1.52c-0.92,0-1.68,0.32-2.28,0.97         c-0.6,0.65-0.9,1.44-0.9,2.37c0,0.93,0.28,1.71,0.84,2.34c0.59,0.66,1.34,1,2.26,1c1.16,0,2.14-0.52,2.93-1.55h0.04v2.05         c-0.91,0.61-1.86,0.92-2.85,0.92c-1.38,0-2.53-0.45-3.43-1.34c-0.91-0.89-1.36-2.03-1.36-3.41c0-1.36,0.46-2.48,1.39-3.39         c0.92-0.91,2.07-1.36,3.42-1.36C627.24,747.75,628.17,748.05,629.02,748.65z"/>
							<path class="st11" d="M635.7,757.26c-1.34,0-2.47-0.46-3.38-1.36c-0.9-0.91-1.36-2.03-1.36-3.38c0-1.34,0.46-2.47,1.36-3.39         c0.91-0.92,2.03-1.38,3.38-1.38c1.34,0,2.46,0.46,3.37,1.38c0.91,0.92,1.36,2.05,1.36,3.39c0,1.34-0.45,2.47-1.36,3.38         C638.17,756.8,637.05,757.26,635.7,757.26z M635.7,749.17c-0.95,0-1.72,0.32-2.31,0.96c-0.59,0.64-0.89,1.43-0.89,2.38         c0,0.95,0.3,1.73,0.89,2.37c0.59,0.64,1.36,0.96,2.31,0.96c0.94,0,1.71-0.32,2.31-0.96c0.6-0.64,0.89-1.43,0.89-2.37         c0-0.95-0.3-1.74-0.89-2.38C637.42,749.49,636.65,749.17,635.7,749.17z"/>
							<path class="st11" d="M644.42,748v0.98c0.53-0.82,1.25-1.23,2.17-1.23c1.16,0,1.99,0.5,2.5,1.5c0.54-1,1.44-1.5,2.71-1.5         c1.92,0,2.89,1.26,2.89,3.78V757h-1.54v-5.23c0-0.79-0.08-1.37-0.23-1.74c-0.25-0.57-0.72-0.86-1.42-0.86         c-1.3,0-1.95,1.03-1.95,3.07V757h-1.53v-5.12c0-1.81-0.54-2.72-1.61-2.72c-1.33,0-1.99,1.06-1.99,3.18V757h-1.53V748H644.42z         "/>
							<g>
								<path class="st11" d="M491.03,757v-16.62h1.62v8.5c0.82-1.08,1.91-1.61,3.26-1.61c1.39,0,2.51,0.5,3.36,1.49          c0.81,0.92,1.21,2.09,1.21,3.5c0,1.37-0.41,2.53-1.24,3.49c-0.85,1.01-1.96,1.51-3.32,1.51c-1.4,0-2.5-0.52-3.28-1.57V757          H491.03z M495.65,748.76c-0.91,0-1.65,0.33-2.23,0.99c-0.57,0.66-0.86,1.47-0.86,2.41c0,0.98,0.27,1.81,0.8,2.5          c0.58,0.74,1.34,1.11,2.3,1.11c0.99,0,1.78-0.35,2.36-1.07c0.54-0.66,0.81-1.5,0.81-2.52c0-0.98-0.29-1.8-0.87-2.45          C497.39,749.09,496.62,748.76,495.65,748.76z"/>
								<path class="st11" d="M510.98,752.61h-7.43c0.01,0.92,0.31,1.67,0.89,2.27c0.58,0.6,1.32,0.9,2.22,0.9          c1.2,0,2.16-0.65,2.88-1.95l1.37,0.79c-0.95,1.77-2.41,2.66-4.37,2.66c-1.4,0-2.52-0.46-3.37-1.39          c-0.84-0.93-1.27-2.09-1.27-3.49c0-1.46,0.4-2.67,1.19-3.61c0.83-1,1.97-1.51,3.41-1.51c1.46,0,2.61,0.54,3.44,1.61          C510.72,749.88,511.06,751.12,510.98,752.61z M503.63,751.24h5.66c-0.11-0.7-0.42-1.29-0.95-1.76          c-0.52-0.48-1.13-0.71-1.83-0.71c-0.71,0-1.35,0.23-1.91,0.71C504.05,749.95,503.73,750.54,503.63,751.24z"/>
								<path class="st11" d="M521.86,747.53V757h-1.61v-1.31c-0.82,1.05-1.92,1.57-3.28,1.57c-1.35,0-2.46-0.51-3.32-1.51          c-0.82-0.94-1.23-2.09-1.23-3.46c0-1.41,0.4-2.59,1.22-3.53c0.85-1,1.97-1.49,3.36-1.49c1.34,0,2.42,0.54,3.26,1.61v-1.35          H521.86z M517.15,748.76c-0.91,0-1.66,0.33-2.23,0.99c-0.57,0.66-0.86,1.47-0.86,2.41c0,0.98,0.27,1.81,0.8,2.5          c0.58,0.74,1.34,1.11,2.3,1.11c1,0,1.78-0.35,2.36-1.07c0.54-0.66,0.81-1.5,0.81-2.52c0-0.98-0.29-1.8-0.87-2.45          C518.89,749.09,518.12,748.76,517.15,748.76z"/>
								<path class="st11" d="M526.32,747.53v5.28c0,0.95,0.12,1.64,0.34,2.07c0.32,0.59,0.92,0.89,1.79,0.89          c0.87,0,1.47-0.3,1.79-0.89c0.23-0.43,0.34-1.12,0.34-2.07v-5.28h1.61V753c0,2.85-1.25,4.27-3.75,4.27          c-2.5,0-3.75-1.42-3.75-4.27v-5.46H526.32z"/>
								<path class="st11" d="M536.84,749.02V757h-1.62v-7.98h-0.99v-1.49h0.99v-3.41h1.62v3.41h1.69v1.49H536.84z"/>
								<path class="st11" d="M542.75,756.1l-4.34-8.57h1.88l3.35,6.79l3.06-6.79h1.83l-6.99,14.77h-1.83L542.75,756.1z"/>
							</g>
						</g>
					</g>
					<g>
						<path class="st11" d="M688.98,740.72c6.45,0,11.69,5.23,11.69,11.69c0,6.45-5.24,11.69-11.69,11.69        c-6.45,0-11.69-5.24-11.69-11.69C677.29,745.95,682.52,740.72,688.98,740.72 M688.98,739c-7.39,0-13.41,6.01-13.41,13.4        c0,7.39,6.02,13.41,13.41,13.41c7.39,0,13.4-6.01,13.4-13.41C702.38,745.01,696.37,739,688.98,739L688.98,739z"/>
						<g>
							<polygon class="st11" points="688.97,752.62 683.7,748.58 694.24,748.58        "/>
							<polygon class="st11" points="687.14,752.28 682.89,755.75 682.89,749.01        "/>
							<polygon class="st11" points="687.84,752.8 688.97,753.7 690.16,752.77 694.31,756.23 683.66,756.23        "/>
							<polygon class="st11" points="690.85,752.24 695.06,749.01 695.06,755.75        "/>
						</g>
					</g>
				</g>
			</g>
		</g>
	</g>
	<g>
		<g>
			<g>
				<g>
					<path class="st11" d="M285.77,577.03c0.1,0,0.22-0.03,0.37-0.08c0.44-0.13,0.87-0.39,1.29-0.76c0.42-0.37,0.65-0.91,0.7-1.6       v-22.97c0-0.43-0.08-0.8-0.24-1.1c-0.16-0.31-0.36-0.57-0.59-0.78c-0.23-0.21-0.49-0.37-0.76-0.48       c-0.27-0.11-0.53-0.19-0.78-0.24h7.43c-0.67,0.13-1.22,0.43-1.66,0.88c-0.44,0.46-0.66,1.04-0.66,1.76v17.4       c0.25-0.75,0.71-1.38,1.39-1.88c0.68-0.51,1.45-0.96,2.33-1.34c0.87-0.39,1.8-0.75,2.77-1.1c0.97-0.35,1.86-0.74,2.66-1.18       c0.8-0.44,1.47-0.97,2.01-1.58c0.54-0.61,0.82-1.38,0.85-2.29v-7.98c0-0.43-0.07-0.8-0.22-1.12c-0.15-0.32-0.34-0.59-0.57-0.8       c-0.23-0.21-0.49-0.38-0.78-0.5c-0.28-0.12-0.55-0.21-0.79-0.26h7.43c-0.64,0.11-1.18,0.37-1.61,0.8       c-0.43,0.43-0.67,0.98-0.72,1.64v23.13c0.05,0.7,0.29,1.25,0.72,1.66c0.43,0.41,0.97,0.68,1.61,0.78h-7.43       c0.32-0.05,0.65-0.16,1-0.32c0.34-0.21,0.66-0.5,0.94-0.86c0.28-0.36,0.42-0.85,0.42-1.46v-13.75       c-0.17,0.78-0.56,1.42-1.16,1.94c-0.6,0.52-1.31,0.98-2.12,1.38c-0.81,0.4-1.68,0.77-2.6,1.1c-0.92,0.33-1.8,0.7-2.62,1.08       c-0.83,0.39-1.56,0.84-2.2,1.34c-0.64,0.51-1.07,1.14-1.29,1.88v5.01c0,0.72,0.22,1.32,0.66,1.78c0.44,0.47,1,0.76,1.66,0.86       H285.77z"/>
					<path class="st11" d="M314.44,577.31c-0.79,0-1.53-0.13-2.24-0.38c-0.7-0.25-1.32-0.63-1.85-1.14       c-0.53-0.51-0.95-1.14-1.26-1.9c-0.31-0.76-0.44-1.66-0.39-2.71c0.05-1.5,0.47-2.74,1.27-3.73c0.8-0.99,1.82-1.79,3.05-2.41       c-0.22-0.67-0.32-1.42-0.3-2.27c0.02-0.84,0.22-1.64,0.59-2.39c0.37-0.75,0.92-1.38,1.64-1.88c0.73-0.51,1.67-0.76,2.83-0.76       c0.71,0,1.42,0.12,2.12,0.36c0.7,0.24,1.34,0.62,1.9,1.14c0.57,0.52,1.02,1.21,1.37,2.06c0.34,0.86,0.52,1.9,0.52,3.13v9.98       c0,0.7,0.22,1.27,0.66,1.72c0.44,0.45,1,0.75,1.66,0.88h-2.29c-0.76,0-1.42-0.29-1.96-0.88c-0.54-0.59-0.81-1.31-0.81-2.16       c-0.91,0.88-1.92,1.66-3.01,2.33C316.87,576.98,315.7,577.31,314.44,577.31z M318.32,563.96c-1.23,0-2.35,0.25-3.36,0.76       c-1.01,0.51-1.83,1.2-2.46,2.07c-0.63,0.87-1.04,1.87-1.24,3.01c-0.2,1.14-0.11,2.33,0.26,3.59c0.32,1.04,0.84,1.9,1.55,2.57       c0.71,0.67,1.59,0.94,2.62,0.8c0.69-0.11,1.5-0.38,2.42-0.82c0.92-0.44,1.88-1.17,2.86-2.19v-9.38       C320.1,564.1,319.21,563.96,318.32,563.96z M317.43,558.03c-0.86,0-1.61,0.21-2.25,0.62c-0.64,0.41-1.15,0.96-1.53,1.62       c-0.38,0.67-0.62,1.42-0.7,2.25c-0.09,0.83-0.01,1.64,0.24,2.45c0.71-0.32,1.48-0.59,2.31-0.82c0.83-0.23,1.71-0.34,2.64-0.34       c0.89,0,1.83,0.12,2.85,0.36c0.02-1.15-0.09-2.16-0.33-3.05c-0.2-0.77-0.55-1.48-1.05-2.11       C319.09,558.38,318.37,558.05,317.43,558.03z"/>
					<path class="st11" d="M327.04,557.67c0.17,0,0.4,0.03,0.68,0.08c0.28,0.05,0.59,0.11,0.92,0.16c0.33,0.05,0.68,0.09,1.05,0.1       c0.37,0.01,0.74-0.01,1.11-0.06c0.42-0.11,0.82-0.29,1.2-0.54c0.38-0.25,0.68-0.59,0.91-1.02c0.22-0.4,0.44-0.85,0.65-1.36       c0.21-0.51,0.31-1,0.31-1.48c0.02-0.53-0.17-1.07-0.57-1.6c-0.41-0.53-1.04-0.88-1.9-1.04c0.62,0.35,0.92,0.91,0.92,1.68       c0,0.53-0.16,0.98-0.48,1.34c-0.32,0.36-0.7,0.54-1.15,0.54c-0.44,0-0.83-0.18-1.15-0.54c-0.32-0.36-0.48-0.81-0.48-1.34       c0-0.61,0.2-1.08,0.59-1.38c0.39-0.31,0.86-0.45,1.4-0.42c0.96,0,1.69,0.28,2.2,0.84c0.5,0.56,0.78,1.12,0.83,1.68       c0.02,0.48-0.06,1-0.26,1.56c-0.2,0.56-0.42,1.14-0.67,1.72c-0.25,0.59-0.48,1.18-0.7,1.76c-0.22,0.59-0.33,1.16-0.33,1.72       v14.35c0.02,0.7,0.26,1.26,0.7,1.7c0.44,0.44,0.99,0.73,1.63,0.86h-7.43c0.49-0.08,1-0.31,1.51-0.7c0.52-0.39,0.8-1,0.85-1.82       c0-1.52,0-2.81,0-3.87c0-1.06,0-1.96,0-2.71c0-0.75,0.01-1.4,0.02-1.94c0.01-0.55,0.02-1.09,0.02-1.62c0-0.53,0-1.11,0-1.72       c0-0.61,0-1.38,0-2.29c0-0.43-0.08-0.8-0.24-1.12c-0.16-0.32-0.36-0.59-0.61-0.8c-0.25-0.21-0.51-0.37-0.78-0.48       C327.55,557.8,327.29,557.72,327.04,557.67z"/>
					<path class="st11" d="M336.74,576.25c0.43-0.39,0.68-0.9,0.76-1.54v-14.71c-0.07-0.64-0.33-1.16-0.76-1.54       c-0.43-0.39-0.94-0.63-1.53-0.74h5.03c0.27,0.43,0.52,0.72,0.76,0.86c0.23,0.15,0.47,0.22,0.72,0.22c0.2,0,0.4-0.03,0.61-0.1       c0.21-0.07,0.41-0.14,0.61-0.22c0.42-0.21,0.86-0.38,1.33-0.5c0.47-0.12,0.92-0.18,1.37-0.18c0.42,0,0.8,0.07,1.15,0.2       c0.34,0.13,0.62,0.37,0.81,0.72c0.25,0.45,0.25,0.88,0,1.28c-0.25,0.4-0.63,0.63-1.15,0.68c-0.27,0.03-0.47-0.03-0.61-0.18       c-0.14-0.15-0.26-0.33-0.37-0.56c-0.11-0.23-0.22-0.45-0.33-0.66c-0.11-0.21-0.29-0.39-0.54-0.52c-0.22-0.13-0.52-0.2-0.89-0.2       c-0.32,0-0.62,0.05-0.89,0.16c-0.39,0.19-0.75,0.28-1.07,0.28c-0.27,0-0.54-0.08-0.79-0.24c-0.26-0.16-0.5-0.44-0.72-0.84       v16.76c0.1,0.67,0.37,1.21,0.81,1.62c0.44,0.41,0.97,0.65,1.59,0.7h-7.43C335.8,576.89,336.31,576.64,336.74,576.25z"/>
					<path class="st11" d="M358,577.23c-1.33,0.11-2.54-0.03-3.62-0.4c-1.08-0.37-2.01-0.91-2.77-1.6       c-0.76-0.69-1.36-1.52-1.77-2.47c-0.42-0.95-0.63-1.93-0.63-2.95h0.19c0,0.99,0.21,1.94,0.63,2.85       c0.42,0.91,1.01,1.7,1.77,2.37c0.76,0.67,1.69,1.18,2.77,1.54c1.08,0.36,2.28,0.49,3.58,0.38c0.54-0.03,1.12-0.2,1.74-0.52       c0.62-0.32,1.19-0.72,1.74-1.2c0.54-0.48,1.01-1.02,1.4-1.62c0.39-0.6,0.63-1.22,0.7-1.86c0.1-1.07-0.02-1.97-0.35-2.71       c-0.33-0.73-0.82-1.38-1.46-1.92c-0.64-0.55-1.38-1.04-2.22-1.46c-0.84-0.43-1.71-0.84-2.62-1.24c-0.91-0.4-1.8-0.84-2.68-1.3       c-0.87-0.47-1.66-1.02-2.35-1.66c-0.69-0.64-1.24-1.41-1.66-2.31c-0.42-0.9-0.63-1.97-0.63-3.23c0-0.8,0.15-1.64,0.44-2.53       c0.3-0.88,0.76-1.68,1.39-2.41c0.63-0.72,1.43-1.31,2.42-1.76c0.99-0.45,2.17-0.65,3.55-0.6c1.33,0.05,2.59,0.47,3.79,1.24       c1.19,0.78,2.19,1.86,2.97,3.25l-0.15,0.08c-0.05-0.11-0.11-0.2-0.18-0.28c-0.57-0.91-1.18-1.64-1.85-2.21       c-0.66-0.56-1.34-0.99-2.01-1.28c-0.68-0.29-1.33-0.47-1.96-0.54c-0.63-0.07-1.2-0.07-1.72-0.02c-1.7,0.19-2.99,0.76-3.88,1.7       c-0.89,0.95-1.39,2.02-1.51,3.23c-0.1,1.34,0.18,2.41,0.83,3.23c0.65,0.82,1.51,1.52,2.57,2.11c1.06,0.59,2.22,1.13,3.47,1.62       c1.26,0.49,2.43,1.08,3.51,1.76c1.08,0.68,1.99,1.54,2.72,2.59c0.73,1.04,1.09,2.39,1.09,4.05c0,1.1-0.18,2.11-0.54,3.05       c-0.36,0.94-0.86,1.76-1.5,2.47c-0.64,0.71-1.4,1.29-2.29,1.74C360.03,576.85,359.06,577.13,358,577.23z"/>
					<path class="st11" d="M372.48,577.31c-0.79,0-1.53-0.13-2.24-0.38c-0.7-0.25-1.32-0.63-1.85-1.14       c-0.53-0.51-0.95-1.14-1.26-1.9c-0.31-0.76-0.44-1.66-0.39-2.71c0.05-1.5,0.47-2.74,1.27-3.73c0.8-0.99,1.82-1.79,3.05-2.41       c-0.22-0.67-0.32-1.42-0.3-2.27c0.02-0.84,0.22-1.64,0.59-2.39c0.37-0.75,0.92-1.38,1.64-1.88c0.73-0.51,1.67-0.76,2.83-0.76       c0.71,0,1.42,0.12,2.12,0.36c0.7,0.24,1.34,0.62,1.9,1.14c0.57,0.52,1.02,1.21,1.37,2.06c0.34,0.86,0.52,1.9,0.52,3.13v9.98       c0,0.7,0.22,1.27,0.66,1.72c0.44,0.45,1,0.75,1.66,0.88h-2.29c-0.76,0-1.42-0.29-1.96-0.88c-0.54-0.59-0.81-1.31-0.81-2.16       c-0.91,0.88-1.92,1.66-3.01,2.33C374.92,576.98,373.74,577.31,372.48,577.31z M376.36,563.96c-1.23,0-2.35,0.25-3.36,0.76       c-1.01,0.51-1.83,1.2-2.46,2.07c-0.63,0.87-1.04,1.87-1.24,3.01c-0.2,1.14-0.11,2.33,0.26,3.59c0.32,1.04,0.84,1.9,1.55,2.57       c0.71,0.67,1.59,0.94,2.62,0.8c0.69-0.11,1.5-0.38,2.42-0.82c0.92-0.44,1.88-1.17,2.86-2.19v-9.38       C378.14,564.1,377.25,563.96,376.36,563.96z M375.48,558.03c-0.86,0-1.61,0.21-2.25,0.62c-0.64,0.41-1.15,0.96-1.53,1.62       c-0.38,0.67-0.62,1.42-0.7,2.25c-0.09,0.83-0.01,1.64,0.24,2.45c0.71-0.32,1.48-0.59,2.31-0.82c0.83-0.23,1.71-0.34,2.64-0.34       c0.89,0,1.83,0.12,2.85,0.36c0.02-1.15-0.09-2.16-0.33-3.05c-0.2-0.77-0.55-1.48-1.05-2.11       C377.13,558.38,376.41,558.05,375.48,558.03z"/>
					<path class="st11" d="M389.93,549.01v25.46c0.02,0.7,0.26,1.27,0.7,1.72c0.44,0.45,0.99,0.75,1.63,0.88h-7.43       c0.05-0.03,0.1-0.04,0.17-0.04c0.06,0,0.13-0.01,0.2-0.04c0.44-0.13,0.87-0.39,1.29-0.78c0.42-0.39,0.65-0.93,0.7-1.62v-23.09       c-0.05-0.8-0.33-1.4-0.85-1.78c-0.52-0.39-1.02-0.62-1.51-0.7H389.93z"/>
					<path class="st11" d="M393.03,567.89c-0.07-1.39,0.11-2.7,0.55-3.93c0.44-1.23,1.06-2.31,1.85-3.23       c0.79-0.92,1.71-1.65,2.75-2.19c1.05-0.53,2.12-0.82,3.23-0.84c-1.11,0.05-2.06,0.4-2.86,1.04c-0.8,0.64-1.44,1.46-1.92,2.47       c-0.48,1-0.82,2.12-1.02,3.37c-0.2,1.24-0.23,2.51-0.11,3.79c0.1,0.99,0.25,1.98,0.44,2.97c0.2,0.99,0.5,1.88,0.91,2.67       c0.41,0.79,0.95,1.44,1.63,1.94c0.68,0.51,1.55,0.79,2.61,0.84c1.13,0.05,2.1-0.18,2.9-0.7c0.8-0.52,1.45-1.22,1.96-2.11       c0.5-0.88,0.86-1.9,1.07-3.07c0.21-1.16,0.3-2.36,0.28-3.59c0.39-0.21,0.78-0.46,1.16-0.74c0.38-0.28,0.78-0.58,1.2-0.9       c0.25,1.44,0.18,2.89-0.2,4.35c-0.38,1.46-1.14,2.81-2.27,4.07c-0.91,1.02-1.86,1.75-2.85,2.21c-0.99,0.46-1.97,0.68-2.96,0.68       c-1.06,0-2.08-0.24-3.05-0.72c-0.97-0.48-1.84-1.14-2.6-1.96c-0.76-0.83-1.39-1.79-1.87-2.89       C393.38,570.32,393.1,569.15,393.03,567.89z M403.56,568.21c-0.89,0.13-1.69,0.07-2.4-0.18c-0.71-0.25-1.31-0.64-1.77-1.16       c-0.47-0.52-0.79-1.14-0.98-1.86c-0.18-0.72-0.2-1.51-0.06-2.37c0.25-1.28,0.81-2.27,1.68-2.97c0.87-0.69,1.87-1.04,2.97-1.04       c0.79,0,1.53,0.17,2.24,0.52c0.7,0.35,1.33,0.81,1.88,1.38c0.55,0.58,1.03,1.23,1.44,1.96c0.41,0.74,0.71,1.49,0.91,2.27       c0.71-0.56,1.37-1.07,1.98-1.52c0.6-0.45,1.08-0.79,1.42-1v-2.08c-0.02-0.4-0.12-0.75-0.3-1.04c-0.17-0.29-0.38-0.54-0.61-0.74       c-0.23-0.2-0.49-0.35-0.76-0.46c-0.27-0.11-0.52-0.19-0.74-0.24h5.14v2.77c0.54-0.35,1.11-0.69,1.72-1.02       c0.6-0.33,1.19-0.63,1.77-0.88c0.58-0.25,1.14-0.45,1.68-0.6c0.54-0.15,1.03-0.21,1.48-0.18c0.91,0.08,1.69,0.36,2.35,0.84       c0.65,0.48,1.18,1.08,1.59,1.8c0.41,0.72,0.7,1.52,0.89,2.39c0.18,0.87,0.28,1.74,0.28,2.63v9.02c0.02,0.7,0.26,1.27,0.7,1.72       c0.44,0.45,0.99,0.75,1.63,0.88h-7.43c0.25-0.03,0.5-0.1,0.78-0.22c0.27-0.12,0.52-0.29,0.76-0.5       c0.23-0.21,0.43-0.47,0.59-0.78c0.16-0.31,0.24-0.66,0.24-1.06V564.2c0-0.61-0.06-1.26-0.18-1.92       c-0.12-0.67-0.33-1.28-0.61-1.84c-0.28-0.56-0.66-1.02-1.13-1.38c-0.47-0.36-1.03-0.54-1.7-0.54c-0.84,0-1.74,0.23-2.72,0.68       c-0.97,0.45-1.87,0.94-2.68,1.44c-2.07,1.36-4.1,2.81-6.1,4.33c-0.42,0.35-0.86,0.7-1.33,1.04c-0.47,0.35-0.95,0.68-1.46,0.98       c-0.51,0.31-1.02,0.57-1.55,0.78C404.64,567.98,404.1,568.13,403.56,568.21z M398.72,562.04c-0.25,0.72-0.33,1.46-0.26,2.23       c0.07,0.76,0.31,1.44,0.7,2.04c0.39,0.6,0.95,1.08,1.68,1.42c0.73,0.35,1.63,0.44,2.72,0.28c0.64-0.08,1.26-0.25,1.87-0.52       c0.6-0.27,1.2-0.6,1.79-1v-0.08c-0.12-1.39-0.33-2.57-0.63-3.53c-0.3-0.96-0.65-1.74-1.05-2.33c-0.41-0.59-0.86-1.01-1.35-1.26       c-0.49-0.25-0.99-0.38-1.48-0.38c-0.44,0-0.87,0.09-1.27,0.26s-0.79,0.4-1.15,0.68c-0.36,0.28-0.67,0.61-0.94,0.98       C399.08,561.21,398.87,561.61,398.72,562.04z M410.51,577.03c0.47-0.08,0.96-0.31,1.48-0.68c0.52-0.37,0.81-0.95,0.89-1.72       v-11.39c0.66-0.45,1.24-0.85,1.74-1.18c0.49-0.33,0.83-0.55,1-0.66v13.03c0.02,0.59,0.18,1.08,0.46,1.46       c0.28,0.39,0.67,0.69,1.16,0.9c0.12,0.05,0.24,0.09,0.35,0.12c0.11,0.03,0.23,0.07,0.35,0.12H410.51z"/>
				</g>
			</g>
		</g>
	</g>
	<g>
		<path class="st4" d="M255.46,586.77c0,0-0.86,1.21-2.31,2.22c-1.24,0.86-2.17,0.55-2.63,0.58c-0.46-0.02-1.4,0.28-2.63-0.58    c-1.38-0.96-2.23-2.1-2.31-2.21c-0.01-0.01-0.01-0.01-0.01-0.01c0.95,0.06,2.7-1.45,3.81-1.45c0.86,0,1.14,0.62,1.14,0.62    s0.28-0.62,1.14-0.62C252.77,585.32,254.51,586.83,255.46,586.77z"/>
		<path class="st4" d="M271.41,555.6c-0.13-0.95-0.3-1.86-0.51-2.71v-0.01c-0.18-0.74-0.38-1.45-0.6-2.11    c1.13-2.87,3.28-10.66-1.62-20.14c0.01,0.01,0.02,0.02,0.04,0.05c0.02,0.02,0.03,0.04,0.05,0.07    C269.83,532.02,277.7,542.34,271.41,555.6z"/>
		<path class="st4" d="M271.25,563.83c0.13-0.58,0.3-2.23,0.37-3.12v-0.01c0.02-0.13,0.02-0.23,0.02-0.33    c0.03-0.73,0.03-1.45,0-2.13c5.41-10.12,2.71-18.22,2.04-19.92c0.02,0.03,0.04,0.08,0.07,0.13    C281.31,552.4,271.25,563.83,271.25,563.83z"/>
		<path class="st4" d="M269.46,548.49c-0.36-0.85-0.72-1.59-1.04-2.2c-0.3-0.56-0.56-1.02-0.77-1.34c2.5-6.35,0.38-13.42,0.13-14.24    c0,0,0.01-0.01,0-0.01c0.02,0.02,0.02,0.03,0.02,0.05C271.52,537.61,270.42,544.84,269.46,548.49z"/>
		<path class="st4" d="M235,585.57c0.49,0.7,1.03,1.35,1.57,2.01c0.54,0.66,1.1,1.29,1.67,1.91c0.58,0.62,1.17,1.22,1.79,1.79    c0.31,0.28,0.6,0.59,0.93,0.85l0.95,0.82l0.99,0.77c0.32,0.27,0.68,0.48,1.02,0.73c0.34,0.24,0.68,0.48,1.04,0.68    c0.36,0.21,0.71,0.43,1.07,0.63l1.11,0.55c0.36,0.2,0.76,0.31,1.13,0.47c0.38,0.15,0.76,0.32,1.15,0.41l1.17,0.33l-0.39,0.01    c0.7-0.27,1.47-0.64,2.18-1.05c0.36-0.19,0.71-0.42,1.06-0.64c0.35-0.21,0.7-0.43,1.04-0.68l1.01-0.72l0.96-0.79    c0.66-0.51,1.24-1.11,1.84-1.68c0.63-0.55,1.14-1.21,1.71-1.81c0.58-0.6,1.06-1.29,1.57-1.94c0.25-0.33,0.51-0.66,0.76-1    l0.68-1.05c0.44-0.71,0.96-1.37,1.33-2.13l1.2-2.21c0.37-0.75,0.7-1.53,1.05-2.29c0.35-0.77,0.71-1.53,0.96-2.34l0.87-2.38    c0.32-0.79,0.48-1.62,0.73-2.43l0.72-2.45c0.36-1.66,0.7-3.33,1.1-5c-0.16,1.7-0.35,3.4-0.56,5.11l-0.49,2.53l-0.26,1.26    c-0.08,0.42-0.18,0.84-0.31,1.25l-0.73,2.48c-0.22,0.84-0.55,1.64-0.87,2.44c-0.33,0.8-0.61,1.62-0.97,2.41l-1.17,2.32    c-0.36,0.79-0.87,1.5-1.31,2.25l-0.69,1.11c-0.25,0.36-0.52,0.7-0.78,1.05c-0.53,0.69-1.02,1.41-1.63,2.05    c-0.59,0.64-1.13,1.34-1.78,1.92c-0.64,0.6-1.26,1.22-1.96,1.75l-1.02,0.83l-1.08,0.76c-0.35,0.26-0.73,0.49-1.11,0.71    c-0.38,0.23-0.75,0.46-1.15,0.65c-0.79,0.42-1.56,0.78-2.47,1.09l-0.21,0.07l-0.18-0.06l-1.27-0.4c-0.43-0.12-0.83-0.3-1.24-0.48    c-0.4-0.18-0.82-0.33-1.2-0.56l-1.15-0.64c-0.37-0.23-0.73-0.48-1.09-0.72c-0.37-0.23-0.71-0.5-1.05-0.77    c-0.34-0.27-0.7-0.52-1.01-0.82l-0.97-0.87c-0.61-0.61-1.24-1.2-1.8-1.85c-0.58-0.64-1.12-1.31-1.64-1.99    c-0.52-0.68-1.03-1.37-1.5-2.08C235.84,587.06,235.41,586.32,235,585.57z"/>
		<path class="st4" d="M244.87,531.48c0,0,0.01,0,0.02-0.01c-0.02,0.02-0.05,0.04-0.07,0.05L244.87,531.48z"/>
		<path class="st4" d="M271.86,525.77c-1.13,3.17-6,2.12-6,2.12l-0.01-0.01c0.67,6.64-0.27,15.23-7.28,21.76    c-10.93,10.2-19.74,15.44-22.48,20.52c-2.66,4.93-1.55,10.53-1.49,10.86c-0.38-0.48-8.56-11.1-3.99-21.98    c-0.27,0.38-6.25,9.22-1.23,19.72c5.14,10.75,17.46,24.23,7.29,39.09c0-0.02,0.01-0.02,0.01-0.04c0.11-0.7,1.57-10.79-7.87-23.41    c-8.12-10.86-18.67-22.61-11.92-38.89c6.92-16.72,39.58-20.75,46.52-37.85c0,0,0.01,0,0.02,0.01    C264,517.79,273.87,520.13,271.86,525.77z"/>
		<path class="st4" d="M264.88,568.17c0,0-6.86,2.62-9.65-2.7c-0.04-0.05-0.06-0.1-0.07-0.13c-0.01-0.01-0.01-0.01-0.01-0.02    c0,0,0,0,0.01,0.01c0.17,0.17,1.67,1.55,5.21,1.49c1.3-0.02,2.76-0.52,4.5-1.49c-0.05,0.11-0.48,1.02-1.32,1.83    C263.8,567.49,264.33,568.07,264.88,568.17z"/>
		<path class="st4" d="M255.14,564.92c0,0,0.59,0.24,1.51,0.45c0.46,0.11,0.99,0.21,1.57,0.27c0.58,0.07,1.19,0.1,1.81,0.08    c0.31,0.01,0.61-0.04,0.92-0.05c0.3-0.03,0.6-0.08,0.88-0.12c0.29-0.05,0.56-0.12,0.82-0.17c0.26-0.05,0.5-0.13,0.73-0.19    c0.22-0.07,0.44-0.11,0.62-0.18c0.18-0.06,0.34-0.12,0.47-0.16c0.26-0.09,0.42-0.13,0.42-0.13s-0.13,0.09-0.37,0.24    c-0.12,0.07-0.27,0.16-0.43,0.26c-0.16,0.11-0.37,0.19-0.59,0.29c-0.22,0.09-0.46,0.22-0.72,0.29c-0.27,0.08-0.54,0.19-0.84,0.25    c-0.3,0.05-0.6,0.14-0.92,0.17c-0.32,0.02-0.64,0.08-0.97,0.08c-0.65,0.01-1.3-0.04-1.9-0.16c-0.6-0.11-1.14-0.28-1.59-0.46    C255.65,565.32,255.14,564.92,255.14,564.92z"/>
		<path class="st4" d="M235.55,536.89c-0.13,0.08-0.27,0.16-0.41,0.23l-0.04,0.02C235.25,537.06,235.4,536.97,235.55,536.89z"/>
		<path class="st4" d="M271.86,525.77c-1.13,3.17-6,2.12-6,2.12l-0.01-0.01c0.67,6.64-0.27,15.23-7.28,21.76    c-10.93,10.2-19.74,15.44-22.48,20.52c-2.66,4.93-1.55,10.53-1.49,10.86c-0.38-0.48-8.56-11.1-3.99-21.98    c-0.27,0.38-6.25,9.22-1.23,19.72c5.14,10.75,17.46,24.23,7.29,39.09c0-0.02,0.01-0.02,0.01-0.04    c6.18-21.63-13.25-31.57-14.71-46.48c-1.46-14.92,17.69-24.66,17.69-24.66c-5.57,6.65-4.57,13.98-4.57,13.98    c2.77-5.47,14.34-12.6,20.98-18.76c6.64-6.16,5.62-16.81,5.62-16.81s3.46,1.08,5.94-1.56c2.4-2.56-3.82-5.66-4.21-5.86    C264,517.79,273.87,520.13,271.86,525.77z"/>
		<path class="st4" d="M267.78,530.7c0.02,0.02,0.02,0.03,0.02,0.05C267.79,530.73,267.79,530.71,267.78,530.7    C267.78,530.7,267.78,530.7,267.78,530.7z"/>
		<path class="st4" d="M269.46,548.49c-0.36-0.85-0.72-1.59-1.04-2.2c2.55-8.29-0.23-14.72-0.62-15.55    C271.52,537.61,270.42,544.84,269.46,548.49z"/>
		<path class="st4" d="M271.41,555.6c-0.13-0.95-0.3-1.86-0.51-2.71v-0.01c4.69-12.18-1.27-20.97-2.13-22.13    C269.83,532.02,277.7,542.34,271.41,555.6z"/>
		<path class="st4" d="M271.25,563.83c0.13-0.58,0.3-2.23,0.37-3.12v-0.01c5.38-7.9,4.54-15.73,3.17-19.71    c-0.45-1.28-0.85-2.17-1.03-2.54C281.31,552.4,271.25,563.83,271.25,563.83z"/>
		<path class="st4" d="M262.3,515.83c0,0-1.04,5.96-9.83,11.84c-5.86,3.92-18.64,10.55-24.69,14.19c-6.86,4.12-9.32,8.72-9.32,8.72    s-1.46-8.01,2.54-16.32c7.75-16.06,23.03-17.45,23.03-17.45s6.64-1.06,12.3-0.28c0,0,3.35-2.1,2.45-7.29    c-1.04-6.05-10.88-8.26-15.24-1.6c2.12-7.65,11.79-7.51,16.12-4.12c1.67,1.31,2.48,3.32,2.81,5.34    C263.08,512.34,262.3,515.83,262.3,515.83z"/>
		<path class="st4" d="M260.79,504.66c-0.03-0.04-0.24-0.29-0.32-0.37c-0.24-0.27-0.5-0.53-0.79-0.76c-4.33-3.39-14-3.53-16.12,4.12    c0.13-0.32,2.5-5.68,9.87-5.07c0,0,4.63,0.2,6.53,3.84c1.56,3,1.21,5.42,1.16,5.83c-0.54,3.11-2.27,6.76-6.48,10.42    c-6.9,6.01-35.77,17.65-36.16,27.91c0,0,2.46-4.6,9.32-8.72c6.05-3.64,18.82-10.26,24.69-14.19c8.79-5.88,10.24-11.9,10.24-11.9    S264.88,509.15,260.79,504.66z"/>
		<path class="st4" d="M234.43,608.28c0,0-10.35-9.65-15.18-17.38c-5.58-8.94-4.5-18.07-4.5-18.07s1.08,6.52,7.15,15.18    C227.98,596.68,233.37,601.81,234.43,608.28z"/>
		<path class="st4" d="M234.43,608.28c0,0-10.35-9.65-15.18-17.38c-5.58-8.94-4.5-18.07-4.5-18.07s0.09,7.36,4.6,14.4    C223.83,594.27,233.77,605.62,234.43,608.28z"/>
		<path class="st4" d="M253.2,587.47c-1.54,0.11-2.31,0-2.69,0c-0.38,0-1.15,0.11-2.69,0c-1.45-0.1-2.17-0.63-2.25-0.69    c0.08,0.12,0.92,1.25,2.31,2.21c1.24,0.86,2.17,0.55,2.63,0.58c0.46-0.02,1.4,0.28,2.63-0.58c1.38-0.96,2.23-2.1,2.31-2.21    C255.37,586.84,254.65,587.37,253.2,587.47z"/>
		<path class="st4" d="M264.87,565.33c-0.05,0.11-0.48,1.02-1.32,1.83c-5.13,1.66-7.9-1.07-8.32-1.69c-0.04-0.05-0.06-0.1-0.07-0.13    c-0.01,0,0-0.01,0-0.01c0.17,0.17,1.67,1.55,5.21,1.49C261.66,566.8,263.12,566.3,264.87,565.33z"/>
	</g>
</g>
</svg>